HIERARCHY
ROOT Hips
{
	OFFSET 0.000000 0.000000 0.000000 
	CHANNELS 6 Xposition Yposition Zposition Zrotation Yrotation Xrotation
	JOINT LeftUpLeg
	{
		OFFSET 1.363060 -1.794630 0.839290 
		CHANNELS 3 Zrotation Yrotation Xrotation
		JOINT LeftLeg
		{
			OFFSET 2.448110 -6.726130 0.000000 
			CHANNELS 3 Zrotation Yrotation Xrotation
			JOINT LeftFoot
			{
				OFFSET 2.562200 -7.039590 0.000000 
				CHANNELS 3 Zrotation Yrotation Xrotation
				JOINT LeftToeBase
				{
					OFFSET 0.157640 -0.433110 2.322550 
					CHANNELS 3 Zrotation Yrotation Xrotation
					End Site
					{
						OFFSET 0.000000 0.000000 0.000000 
					}
				}
			}
		}
	}
	JOINT RightUpLeg
	{
		OFFSET -1.305520 -1.794630 0.839290 
		CHANNELS 3 Zrotation Yrotation Xrotation
		JOINT RightLeg
		{
			OFFSET -2.542530 -6.985550 0.000000 
			CHANNELS 3 Zrotation Yrotation Xrotation
			JOINT RightFoot
			{
				OFFSET -2.568260 -7.056230 0.000000 
				CHANNELS 3 Zrotation Yrotation Xrotation
				JOINT RightToeBase
				{
					OFFSET -0.164730 -0.452590 2.363150 
					CHANNELS 3 Zrotation Yrotation Xrotation
					End Site
					{
						OFFSET 0.000000 0.000000 0.000000 
					}
				}
			}
		}
	}
	JOINT Spine
	{
		OFFSET 0.028270 2.035590 -0.193380 
		CHANNELS 3 Zrotation Yrotation Xrotation
		JOINT Spine1
		{
			OFFSET 0.056720 2.048850 -0.042750 
			CHANNELS 3 Zrotation Yrotation Xrotation
			JOINT Neck1
			{
				OFFSET -0.054170 1.746240 0.172020 
				CHANNELS 3 Zrotation Yrotation Xrotation
				JOINT Head
				{
					OFFSET 0.104070 1.761360 -0.123970 
					CHANNELS 3 Zrotation Yrotation Xrotation
					End Site
					{
						OFFSET 0.000000 0.000000 0.000000 
					}
				}
			}
			JOINT LeftArm
			{
				OFFSET 3.362410 1.200890 -0.311210 
				CHANNELS 3 Zrotation Yrotation Xrotation
				JOINT LeftForeArm
				{
					OFFSET 4.983000 -0.000000 -0.000000 
					CHANNELS 3 Zrotation Yrotation Xrotation
					JOINT LeftHand
					{
						OFFSET 3.483560 -0.000000 -0.000000 
						CHANNELS 3 Zrotation Yrotation Xrotation
						JOINT LeftHandIndex1
						{
							OFFSET 0.715260 -0.000000 -0.000000 
							CHANNELS 3 Zrotation Yrotation Xrotation
							End Site
							{
								OFFSET 0.000000 0.000000 0.000000 
							}
						}
					}
				}
			}
			JOINT RightArm
			{
				OFFSET -3.136600 1.374050 -0.404650 
				CHANNELS 3 Zrotation Yrotation Xrotation
				JOINT RightForeArm
				{
					OFFSET -5.241900 -0.000000 -0.000000 
					CHANNELS 3 Zrotation Yrotation Xrotation
					JOINT RightHand
					{
						OFFSET -3.444170 -0.000000 -0.000000 
						CHANNELS 3 Zrotation Yrotation Xrotation
						JOINT RightHandIndex1
						{
							OFFSET -0.622530 -0.000000 -0.000000 
							CHANNELS 3 Zrotation Yrotation Xrotation
							End Site
							{
								OFFSET 0.000000 0.000000 0.000000 
							}
						}
					}
				}
			}
		}
	}
}
MOTION
Frames: 6
Frame Time: 0.041667
-2.798736 16.973533 -6.201949 -3.900122 -1.012685 11.156241 -25.033636 -15.058650 -16.837721 0.361798 12.260404 30.789726 -0.692576 13.398975 -21.660441 0.046000 1.383700 3.805300 38.011376 12.606186 -12.854933 0.699674 -10.799706 27.395855 0.279836 -9.469643 -18.459446 -0.091400 -1.949700 5.366700 1.380727 -1.820414 -5.044452 -5.640335 -1.154748 -0.907095 5.263337 4.797189 19.785488 -3.309400 4.387000 18.226400 -97.879947 10.247887 19.421125 25.919538 -35.383574 -5.535372 -0.342812 4.148744 17.328289 -7.125000 0.000000 0.000000 95.088909 -2.367806 23.790684 -20.152798 31.400940 -3.491792 -0.649984 -3.003085 13.889478 7.125000 0.000000 0.000000 
-2.796670 16.972662 -6.197925 -3.933298 -1.021408 11.144411 -25.012658 -14.957633 -16.860807 0.371062 12.268073 30.827250 -0.681203 13.329273 -21.649370 0.046400 1.390600 3.824400 38.054455 12.689566 -12.789825 0.705975 -10.787288 27.363717 0.291069 -9.547974 -18.474980 -0.090300 -1.937700 5.333400 1.376691 -1.795578 -5.046478 -5.651437 -1.143839 -0.917172 5.256630 4.775955 19.687030 -3.324800 4.373900 18.108100 -97.776776 10.197201 19.420424 25.938207 -35.382883 -5.544929 -0.348459 4.155188 17.265600 -7.125000 0.000000 0.000000 95.092002 -2.347568 23.793088 -20.257608 31.495403 -3.519820 -0.633184 -3.016186 13.691432 7.125000 0.000000 0.000000 
-2.794712 16.972554 -6.194009 -3.965588 -1.043310 11.147343 -24.989712 -14.962453 -16.852758 0.374161 12.270100 30.838718 -0.682190 13.345428 -21.671498 0.047200 1.401600 3.854400 38.088407 12.677455 -12.771421 0.708614 -10.781906 27.351216 0.290540 -9.537512 -18.459280 -0.088900 -1.923500 5.294300 1.376837 -1.781864 -5.048436 -5.641559 -1.136839 -0.929352 5.260140 4.793984 19.578558 -3.327600 4.372800 17.964200 -97.730108 10.161482 19.367418 25.961285 -35.395747 -5.556475 -0.333129 4.152506 17.179611 -7.125000 0.000000 0.000000 95.066134 -2.313500 23.843549 -20.328497 31.554172 -3.542176 -0.636280 -3.025428 13.552099 7.125000 0.000000 0.000000 
-2.793406 16.971901 -6.188461 -3.960624 -1.054654 11.132940 -25.017093 -14.980953 -16.812297 0.377214 12.271505 30.851482 -0.685951 13.384672 -21.701766 0.046700 1.394600 3.835100 38.089517 12.728461 -12.712063 0.709631 -10.772968 27.338028 0.296699 -9.591678 -18.488872 -0.092200 -1.958400 5.390600 1.372770 -1.764374 -5.049376 -5.642876 -1.127540 -0.940269 5.237776 4.741905 19.456248 -3.362800 4.346200 17.796700 -97.678866 10.166669 19.355367 26.016396 -35.442754 -5.584092 -0.326675 4.162840 17.036682 -7.125000 0.000000 0.000000 95.060759 -2.295169 23.839958 -20.329567 31.548738 -3.545597 -0.672158 -3.002144 13.573526 7.125000 0.000000 0.000000 
-2.791231 16.971575 -6.183566 -3.966571 -1.059313 11.125170 -25.030007 -14.974575 -16.789671 0.379156 12.270959 30.857838 -0.686571 13.395104 -21.713235 0.046500 1.391000 3.825400 38.095779 12.740428 -12.675576 0.709797 -10.767243 27.331107 0.298819 -9.613374 -18.503410 -0.093400 -1.970700 5.424600 1.369847 -1.750201 -5.052469 -5.642833 -1.120526 -0.960434 5.222175 4.707794 19.342031 -3.387300 4.325500 17.640400 -97.635991 10.167168 19.329556 26.056399 -35.472835 -5.603968 -0.317081 4.167923 16.934343 -7.125000 0.000000 0.000000 95.046529 -2.285196 23.856359 -20.369696 31.580279 -3.559699 -0.684937 -3.001563 13.481117 7.125000 0.000000 0.000000 
-2.788838 16.971248 -6.178453 -3.968658 -1.055350 11.118879 -25.047446 -14.971140 -16.764874 0.379507 12.268372 30.857104 -0.687219 13.403156 -21.719213 0.046000 1.383800 3.805500 38.094612 12.731795 -12.649306 0.708188 -10.764057 27.332804 0.298602 -9.621367 -18.519812 -0.094400 -1.981000 5.453300 1.367182 -1.740639 -5.056150 -5.642798 -1.115917 -0.979956 5.205591 4.671551 19.229941 -3.411000 4.302800 17.487600 -97.603605 10.172496 19.304816 26.091736 -35.499855 -5.622224 -0.304217 4.172687 16.836028 -7.125000 0.000000 0.000000 95.028814 -2.277409 23.874443 -20.398906 31.602152 -3.570988 -0.697026 -3.002511 13.395615 7.125000 0.000000 0.000000 
